<?xml version="1.0" encoding="utf-8"?>
<!-- Generator: Adobe Illustrator 23.0.3, SVG Export Plug-In . SVG Version: 6.00 Build 0)  -->
<svg version="1.1" id="Layer_1" xmlns="http://www.w3.org/2000/svg" xmlns:xlink="http://www.w3.org/1999/xlink" x="0px" y="0px"
	 viewBox="0 0 783 223" style="enable-background:new 0 0 783 223;" xml:space="preserve">
<style type="text/css">
	.st0{fill:#FFFFFF;}
	.st1{enable-background:new    ;}
	.st2{fill:none;stroke:#FFFFFF;stroke-width:2;}
</style>
<g>
	<path id="Path_44" class="st0" d="M133.5,88.8c-1,2.4-1.8,4.8-2.5,7.2c-1.6,5.4-2.6,11-3.2,16.7c-0.2,1.9-0.3,3.7-0.3,5.6
		c-1.1,0.6-2.3,1.1-3.4,1.5c-0.8,0.3-1.6,0.6-2.4,0.8c-0.8,0.1-1.3,0.8-1.4,1.6c-2.1,10.3-6.6,19.9-13.3,28
		c-3.5,4.4-7.7,8.2-12.3,11.4c-5.9,4-12.6,6.7-19.6,7.9c-1.9,0.3-3.8,0.5-5.8,0.7c-1.8,0.2-3.5,0.3-5.3,0.3
		c-6.3-0.3-12.6-1.3-18.5-3.8c-4.4-1.9-8.4-4.4-12-7.5c-4.3-3.8-7.9-8.2-10.7-13.2c-1.9-3.3-3.5-6.7-4.7-10.3
		c-1.4-3.8-2.4-7.8-3-11.8c-0.5-3.4-1-6.9-1.3-10.3c-0.2-2.2,0-4.4,0-6.6h-0.2c0.2-3.5,0.2-7.1,0.6-10.6c0.5-5.1,1.3-10.2,2.5-15.2
		c1.5-6.5,3.5-12.8,6-18.9c3.2-8,7.5-15.5,12.7-22.4c2.8-3.8,6-7.3,9.5-10.5c3.8-3.5,8-6.5,12.5-9c4.9-2.8,10.2-4.7,15.7-5.9
		c2.3-0.4,4.6-0.6,6.8-1c2.7-0.4,5.4-0.5,8.1-0.3c7.1,0.1,14.1,1.8,20.5,5c6.7,3.4,12.1,8.8,15.5,15.4c1.7,3.4,2.9,7.1,3.4,11
		c0.4,2.8,0.5,5.7,0.2,8.5c-0.5,6.5-2.8,12.8-6.6,18.1c-2.6,3.7-6.1,6.8-10.2,9c-2.7,1.4-5.6,2.3-8.6,2.6c-2.2,0.2-4.4,0-6.4-0.7
		c-3.1-1.1-5.7-3.2-7.4-6c-2.1-3.5-3.5-7.4-4.2-11.4c0-0.1,0-0.1,0-0.2c-0.3-2.6-0.2-2.6,2.2-3.6c4.1-1.8,7.8-4.2,10.3-8.2
		c1-1.5,1.6-3.3,1.7-5.2c0.1-2.6-1.4-5.1-3.7-6.2c-2.8-1.4-5.9-1.9-8.9-1.4c-5.2,0.8-10.1,3.2-14,6.8c-4.1,3.7-7.7,8.1-10.4,12.9
		c-4.4,7.7-7.7,16-9.6,24.7c-1,4.1-1.7,8.2-2,12.4c-0.1,2.3-0.1,4.6-0.4,6.9c-0.2,2.9-0.2,5.8,0.1,8.7c0.5,6.6,1.8,13.1,5.2,19
		c1.8,3.3,4.5,6,7.9,7.7c5.4,2.5,11.9,1.7,16.5-2.1c3.7-3.2,6.5-7.4,8.1-12.1c0.3-0.9,0.6-1.8,0.9-2.7c0.2-0.6-0.1-0.9-0.7-0.9
		c-0.4,0-0.8,0-1.3,0c-3.8,0.1-7.6-0.1-11.3-0.7c-1.1-0.2-2-0.8-2.6-1.7c-1.3-1.8-2.1-4-2.1-6.3c-0.4-6.3,1.1-12.6,4.5-17.9
		c0.6-0.8,1.2-1.6,2-2.2c1-0.9,2.5-1.3,3.8-0.9c2.2,0.5,4.6,0.6,6.8,0.9c2.5,0.3,5.1,0.6,7.6,0.7c3.1,0.2,6.2,0.1,9.2-0.2
		c1.7-0.3,3.4-0.2,5.1-0.4c3.5-0.5,7-0.9,10.5-1.6c4.1-0.8,8.1-1.7,12.1-2.6C132.8,87.7,133.1,87.8,133.5,88.8"/>
	<path id="Path_66" class="st0" d="M453,72.7c0,1.1,0,2.1-0.1,3.1c-0.9,19.2-4.3,42.5-6.8,61.6c-1.5,11.5-3.9,22.9-7.3,34
		c-3.6,12.5-10.5,24.7-21.8,31.2c-8.8,5.1-19.3,6.2-29.4,6.3c-8.5,0-17.2-0.7-24.8-4.6c-3.9-2-7.6-5-9-9.2
		c-2.2-6.6,1.7-13.6,5.7-19.4c7,4.2,14.3,8.6,22.4,10s17.4-0.7,22.2-7.4c3.5-4.8,4.2-11,4.7-17c-6.7,3.4-13.5,6.8-20.9,8.2
		s-15.5,0.7-21.6-3.7c-9.7-7-11.5-20.8-10.6-32.8c0.9-11.9,3.5-24.3,5.6-36.3c1.1-6.4,2.2-12.9,2.8-19.4c0.5-5.4-0.3-11.7,2.2-16.8
		c2.7-5.4,13.1-5.5,18.4-5.1c2.3,0,4.6,0.6,6.7,1.7c8.4,5,5,20.6,4.1,28.6c-1.6,13.6-5.1,24.4-7.1,38c-0.9,6.3-0.4,14.3,5.5,16.9
		c4.3,1.9,9.5-0.4,12.4-4.1s4-8.4,5-12.9c4.4-19.2,8.8-38.7,8.9-58.4c0-2.7,0.1-5.8,2.2-7.6c1.4-1,3.1-1.6,4.9-1.7
		c7.8-1.1,16.9-1.7,22.1,4.2C452.3,63.5,453,68.2,453,72.7"/>
	<path id="Path_88" class="st0" d="M190.7,101.9c0,2.3-0.4,4.6-0.6,6.9c-0.3,3.3-0.9,6.5-1.9,9.7c-1.5,5.7-3.7,11.2-7.4,16
		c-2,2.8-4.9,4.8-8.3,5.8c-4.2,1.1-7.7-0.6-9.8-4.5c-1.1-2.3-1.9-4.7-2.1-7.3c-0.3-2.3-0.4-4.7-0.5-7.1c0.2-4.2,0.6-8.4,1.4-12.5
		c0.9-5.1,2.4-10,4.5-14.7c1.5-3.5,3.6-6.7,6.2-9.5c1.5-1.8,3.5-3,5.8-3.6c4.6-1.1,7.3,0,9.6,3.6c1.6,2.6,2.5,5.6,2.8,8.7
		C190.6,96.2,190.7,99.1,190.7,101.9 M222.9,94.5c-0.1-3.1-0.5-6.2-1.1-9.3c-1.1-6.7-3.7-13-7.6-18.6c-0.8-1.1-1.6-2.2-2.5-3.2
		c-3.4-3.7-7.5-6.6-12.2-8.4c-3.8-1.5-7.8-2.5-11.9-2.7c-4.9-0.3-9.8,0-14.7,0.9c-5.5,1.2-10.8,3.3-15.6,6.2c-4.9,3-9.2,6.7-12.9,11
		c-2.7,3.1-5,6.5-7,10c-1.5,2.7-2.8,5.5-4,8.3c-1,2.4-1.8,4.8-2.5,7.2c-1.6,5.4-2.7,11-3.2,16.7c-0.2,1.9-0.3,3.7-0.3,5.6
		c-0.1,1.3-0.1,2.6-0.2,3.9c0.2,2.8,0.2,5.8,0.5,8.7c0.3,3.8,1.1,7.5,2.1,11.1c2.1,7,5.3,13.4,10.8,18.5c3.4,3.2,7.5,5.6,12,7.1
		c5.5,1.9,11.4,2.7,17.3,2.2c2.4-0.2,4.8-0.3,7.2-0.7c6.1-1,11.9-3.2,17.1-6.6c4.1-2.6,7.8-5.8,11-9.4c2.9-3.4,5.5-7.1,7.7-11
		c3.3-6,5.8-12.5,7.4-19.2c1.1-4.2,1.8-8.4,2.2-12.7c0.4-3.9,0.6-7.8,0.6-11.7C223.2,97.2,222.9,95.9,222.9,94.5"/>
	<path id="Path_110" class="st0" d="M297.2,121.5c0.2,2.3,0.2,4.6,0.5,6.9c0.3,2.7,1,5.2,2.3,7.6c2.1,3.8,5.1,5.1,8.8,4.5
		c2.7-0.5,5.2-1.8,7.1-3.7c3-3,5.3-6.6,6.8-10.5c3-7.2,4.7-14.8,5.1-22.5c0.3-4.1,0.1-8.2-0.7-12.2c-0.4-2.3-1.2-4.6-2.4-6.6
		c-2.3-3.7-5.1-4.8-9.7-3.7c-2.2,0.6-4.3,1.9-5.8,3.7c-2.6,2.8-4.7,6-6.2,9.5c-2.1,4.7-3.6,9.7-4.5,14.7
		C297.8,113.1,297.3,117.3,297.2,121.5 M264.4,122.4c0.2-3.5,0.2-6.6,0.5-9.7c0.6-5.7,1.7-11.3,3.3-16.8c1.6-5.4,3.8-10.6,6.6-15.5
		c2-3.5,4.3-6.8,6.9-9.9c3.6-4.3,8-8,12.8-10.9c4.9-3,10.2-5.1,15.8-6.3c4.8-1,9.8-1.3,14.7-0.9c7.5,0.6,14.5,2.9,20.4,7.7
		c3.6,3,6.6,6.7,8.8,10.8c2.7,5.2,4.5,10.8,5.3,16.7c0.3,2.3,0.5,4.7,0.7,7c0.2,2.2,0.3,4.5,0.3,6.7c-0.1,2.9-0.3,5.9-0.6,8.8
		c-0.3,2.5-0.6,5-1.1,7.5c-0.6,2.9-1.2,5.9-2,8.8c-1.4,5-3.3,9.8-5.7,14.3c-2.3,4.4-5.1,8.5-8.4,12.3c-3.1,3.6-6.8,6.8-10.8,9.4
		c-5.3,3.4-11.2,5.7-17.4,6.7c-2.3,0.4-4.6,0.7-6.9,0.7c-0.9,0-1.9,0.3-2.8,0.3c-7.2-0.3-14.2-1.3-20.5-5c-2-1.2-3.9-2.5-5.6-4
		c-6.3-5.4-9.7-12.6-11.8-20.4c-1.1-3.9-1.7-8-1.8-12.1C264.7,126.5,264.5,124.3,264.4,122.4"/>
	<path id="Path_132" class="st0" d="M268.5,72.4c0,17.4-2.8,36.7-5.9,53.6c-4.1,22-6.1,43.4-16.5,63.7c-2.1,4.2-4.9,8-8.2,11.3
		c-4.1,3.9-9.3,6.6-14.9,7.7c-3.2,0.7-6.5,0.9-9.7,0.6c-4.5-0.4-8.9-1.2-12.8-3.7c-3.3-2.1-5.6-5.4-6.4-9.2c-0.9-3.9,0-7.6,0.8-11.4
		c0.5-2.4,0.6-2.3,3-1.6c1.7,0.6,3.5,1,5.3,1.2c3.7,0.1,7.5,0.1,10.7-2.2c2.3-1.8,4.1-4.2,5.1-6.9c1.9-4.7,3.3-9.6,4.2-14.6
		c1.4-6.5,2.7-13.1,3.9-19.6c0.9-4.4,1.7-8.8,2.4-13.2c0.6-3.5,1-7.1,1.6-10.7c0.5-3.2,0.9-6.3,1.3-9.5c0.3-2.5,0.5-4.9,0.8-7.4
		c0.3-2.9,0.7-5.7,1-8.6c0.2-1.7,0.3-3.4,0.4-5.1c0.2-2.2,0.4-4.3,0.6-6.5c0.1-1.5,0.3-3.1,0.4-4.6c0.1-2.1,0.2-4.3,0.4-6.4
		c0.2-2.6,0.5-5.2,0.7-7.8c0.1-0.9,0.1-1.9,0.1-2.8c0-0.6,0.4-1.2,1-1.2l0,0c0.4-0.1,0.8-0.1,1.2-0.1c3.2,0.1,6.3-0.6,9.5-1
		c3-0.5,6.1-0.8,9.2-0.9c4-0.1,7.6,2.3,9,6c1.1,2.6,1.7,5.4,1.8,8.3C268.6,70.6,268.5,71.5,268.5,72.4"/>
</g>
<g class="st1">
	<path class="st0" d="M497.2,115.4c-4.2-2.5-7.4-6-9.6-10.6c-2.2-4.6-3.4-10.1-3.4-16.3c0-6.3,1.1-11.7,3.4-16.3
		c2.2-4.6,5.4-8.1,9.6-10.5c4.2-2.5,9.1-3.7,14.7-3.7c4.1,0,7.9,0.6,11.4,1.9c3.4,1.3,6.4,3.1,8.9,5.7l-2.6,5.3
		c-2.9-2.5-5.7-4.2-8.4-5.3c-2.8-1.1-5.8-1.6-9.2-1.6c-6.6,0-11.6,2.1-15.2,6.4c-3.6,4.3-5.4,10.3-5.4,18.1c0,7.9,1.8,14,5.4,18.3
		c3.6,4.3,8.7,6.4,15.3,6.4c3.4,0,6.4-0.5,9.2-1.6s5.6-2.8,8.4-5.3l2.6,5.3c-2.5,2.5-5.5,4.4-8.9,5.7s-7.2,1.9-11.4,1.9
		C506.3,119.1,501.4,117.8,497.2,115.4z"/>
	<path class="st0" d="M593.3,58.6h6.9v59.8h-6.9V90.9h-35.9v27.5h-6.8V58.6h6.8v26.5h35.9V58.6z"/>
	<path class="st0" d="M667.3,118.4l-6.6-15.4h-31.2l-6.6,15.4h-7.1l26.3-59.8h6l26.3,59.8H667.3z M632,97.3h26.4l-13.2-30.7
		L632,97.3z"/>
	<path class="st0" d="M690,118.4V58.6h6.9v59.8H690z"/>
	<path class="st0" d="M759.8,58.6h6.6v59.8H761l-36.1-48.1v48.1h-6.5V58.6h5.3l36.1,48.1V58.6z"/>
</g>
<g class="st1">
	<path class="st2" d="M497.2,115.4c-4.2-2.5-7.4-6-9.6-10.6c-2.2-4.6-3.4-10.1-3.4-16.3c0-6.3,1.1-11.7,3.4-16.3
		c2.2-4.6,5.4-8.1,9.6-10.5c4.2-2.5,9.1-3.7,14.7-3.7c4.1,0,7.9,0.6,11.4,1.9c3.4,1.3,6.4,3.1,8.9,5.7l-2.6,5.3
		c-2.9-2.5-5.7-4.2-8.4-5.3c-2.8-1.1-5.8-1.6-9.2-1.6c-6.6,0-11.6,2.1-15.2,6.4c-3.6,4.3-5.4,10.3-5.4,18.1c0,7.9,1.8,14,5.4,18.3
		c3.6,4.3,8.7,6.4,15.3,6.4c3.4,0,6.4-0.5,9.2-1.6s5.6-2.8,8.4-5.3l2.6,5.3c-2.5,2.5-5.5,4.4-8.9,5.7s-7.2,1.9-11.4,1.9
		C506.3,119.1,501.4,117.8,497.2,115.4z"/>
	<path class="st2" d="M593.3,58.6h6.9v59.8h-6.9V90.9h-35.9v27.5h-6.8V58.6h6.8v26.5h35.9V58.6z"/>
	<path class="st2" d="M667.3,118.4l-6.6-15.4h-31.2l-6.6,15.4h-7.1l26.3-59.8h6l26.3,59.8H667.3z M632,97.3h26.4l-13.2-30.7
		L632,97.3z"/>
	<path class="st2" d="M690,118.4V58.6h6.9v59.8H690z"/>
	<path class="st2" d="M759.8,58.6h6.6v59.8H761l-36.1-48.1v48.1h-6.5V58.6h5.3l36.1,48.1V58.6z"/>
</g>
</svg>
